<svg width="1034" height="552" viewBox="0 0 1034 552" fill="none" xmlns="http://www.w3.org/2000/svg">
<mask id="mask0_414_2565" style="mask-type:alpha" maskUnits="userSpaceOnUse" x="-18" y="0" width="1052" height="552">
<g clip-path="url(#clip0_414_2565)">
<path d="M466.612 451.166C447.108 446.509 426.957 437.912 410.33 427.153C404.8 423.574 395.265 416.485 390.522 412.426C361.819 387.859 341.13 354.197 332.581 318.154C331.305 312.777 328.921 297.181 328.392 290.753C326.876 272.345 328.292 252.102 332.258 235.473C337.955 211.586 346.916 191.321 360.259 172.149C391.343 127.487 442.024 99.1175 496.882 95.6739C531.709 93.4877 566.12 101.493 596.471 118.842C627.757 136.725 652.915 163.142 668.559 194.536C683.447 224.412 689.811 257.268 687.044 289.975C685.582 307.243 682.143 322.726 676.271 338.475C671.596 351.014 663.82 366.401 657.146 376.321C632.953 412.278 596.093 438.485 554 449.654C525.334 457.261 494.383 457.796 466.612 451.166Z" fill="#FFE8B2"/>
<path d="M466.306 450.728C432.293 442.608 400.603 424.198 376.744 398.696C368.576 389.967 357.509 375.238 352.179 366.004C347.111 357.226 342.132 346.56 338.566 336.847C335.442 328.336 331.714 314.587 332.401 314.107C332.487 314.047 333.305 315.531 334.219 317.405C341.981 333.32 362.463 349.291 392.44 362.802C411.288 371.298 428.272 377.105 452.519 383.347C462.355 385.879 490.63 391.194 501.845 392.619C543.245 397.881 580.7 397.364 611.667 391.105C618.839 389.655 633.094 385.341 638.439 383.002C647.732 378.937 654.485 374.574 659.4 369.462C660.772 368.036 662.006 366.883 662.143 366.901C662.629 366.962 660.249 371.106 656.777 376.247C646.357 391.672 632.575 406.395 618.693 416.932C594.125 435.58 570.248 446.48 541.526 452.156C517.038 456.995 490.443 456.49 466.306 450.728ZM470.174 333.165C451.548 328.858 436.575 324.632 422.7 319.765C382.303 305.595 352.762 287.707 338.96 269.057C334.508 263.041 332.117 257.953 330.863 251.829C330.276 248.966 330.861 244.469 332.987 235.491C335.861 223.355 339.257 212.987 343.69 202.817C346.329 196.761 355.568 179.855 358.997 174.806C372.067 155.562 387.619 139.959 406.501 127.146C438.809 105.22 475.66 94.4095 513.734 95.6848C550.657 96.9219 587.132 109.82 615.495 131.669C632.151 144.501 644.798 157.788 655.961 174.188C671.748 197.38 680.505 219.804 684.897 248.281C687.535 265.387 687.706 279.374 685.504 297.882C684.691 304.72 684.613 305.076 683.416 307.444C680.669 312.875 676.849 317.037 670.245 321.795C661.378 328.184 649.233 333.323 634.285 337.013C601.51 345.104 559.481 346.32 512.718 340.533C506.436 339.756 475.527 334.403 470.175 333.165L470.174 333.165Z" fill="#F7DEA2"/>
<path d="M466.01 450.305C427.921 441.211 394.277 420.106 369.043 389.473C363.799 383.108 355.3 371.077 352.045 365.412C346.937 356.52 342.349 346.754 339 337.641C335.958 329.363 332.522 317.213 333.107 316.804C333.224 316.722 333.358 316.732 333.405 316.826C337.081 324.277 342.335 330.801 350.065 337.509C371.323 355.962 406.505 371.908 451.731 383.589C461.48 386.107 491.481 391.733 502.712 393.15C543.568 398.303 581.251 397.73 611.842 391.49C618.881 390.054 631.138 386.476 636.532 384.282C645.54 380.618 653.829 375.612 658.507 371.009C659.714 369.822 660.758 368.929 660.826 369.026C661.435 369.896 650.738 385.004 644.193 392.518C633.087 405.269 623.872 413.447 609.792 423.047C591.777 435.331 573.308 443.983 554.364 449.016C525.286 456.74 494.83 457.184 466.01 450.305ZM483.009 267.832C430.364 256.083 387.009 236.151 366.654 214.341C363.309 210.757 358.652 204.092 357.156 200.748C354.6 195.036 353.827 189.809 354.753 184.506C355.496 180.25 356.997 177.616 364.299 167.757C377.795 149.534 398.175 131.273 416.987 120.543C435.599 109.929 453.591 103.065 473.03 99.1607C519.389 89.8526 567.368 99.2822 606.478 125.388C620.589 134.808 634.428 147.264 645.942 160.909C650.527 166.342 656.685 174.867 659.385 179.518C664.848 188.932 665.872 190.779 668.07 195.195C674.099 207.304 679.4 221.629 681.341 231.054C682.317 235.796 680.715 242.22 677.274 247.367C668.706 260.183 646.974 270.047 616.872 274.783C579.474 280.666 528.705 278.03 483.019 267.833L483.009 267.832Z" fill="#EBD192"/>
<path d="M466.37 450.368C442.69 444.715 420.155 434.135 400.443 419.417C395.689 415.867 392.263 412.99 392.551 412.789C392.625 412.736 393.962 413.525 395.52 414.541C421.983 431.788 465.07 444.104 509.474 447.112C531.585 448.61 554.134 447.031 569.514 442.906C576.074 441.147 572.938 442.962 564.402 445.864C533.763 456.28 498.016 457.923 466.37 450.368ZM459.948 423.03C422.937 414.559 391.812 401.938 371.647 387.223C363.33 381.154 359.503 377.128 354.834 369.535C348.256 358.836 343.538 349.228 339.594 338.495C337.77 333.532 333.974 321.22 333.764 319.59C333.703 319.113 335.337 321.124 337.495 324.182C342.854 331.776 348.606 337.406 357.923 344.178C380.514 360.595 412.152 373.836 454.893 384.76C463.098 386.857 501.188 393.572 509.77 394.434C557.944 399.273 596.436 397.187 626.296 388.121C640.854 383.7 652.203 377.756 659.232 370.869L660.037 370.08L659.644 370.948C658.954 372.473 651.773 382.695 648.298 387.1C638.757 399.19 626.669 410.947 617.034 417.505C609.708 422.492 593.709 427.319 576.225 429.816C554.329 432.944 530.26 432.992 501.256 429.964C493.781 429.184 467.73 424.811 459.948 423.03ZM490.557 219.687C452.457 210.645 420.793 196.898 402.632 181.514C397.303 176.999 394.318 173.813 391.145 169.249C386.496 162.564 384.759 156.303 385.832 150.096C386.746 144.804 388.597 141.599 392.796 138.031C394.103 136.921 396.304 135.055 397.688 133.884C405.013 127.689 421.335 117.795 432.812 112.593C448.423 105.517 458.639 102.122 473.076 99.2132C485.404 96.7292 494.966 95.6979 506.249 95.6357C528.197 95.5145 547.674 98.8515 568.992 106.385C583.491 111.509 602.46 121.83 614.466 131.126C622.554 137.388 634.339 148.203 640.591 155.1C649.288 164.694 659.159 178.429 661.728 184.513C663.424 188.528 663.089 195.511 660.983 200.029C656.561 209.518 644.207 217.495 626.066 222.575C600.804 229.65 567.142 231.012 529.103 226.5C521.452 225.593 497.895 221.429 490.557 219.687Z" fill="#E1CC8B"/>
<path d="M465.44 423.787C446.276 419.48 431.313 415.197 417.661 410.11C394.012 401.298 374.663 390.396 362.594 379.082C355.415 372.352 345.814 355.405 339.598 338.492C337.774 333.529 333.978 321.218 333.769 319.587C333.708 319.11 335.342 321.121 337.499 324.179C342.859 331.773 348.61 337.403 357.928 344.175C380.519 360.593 412.157 373.833 454.898 384.757C463.103 386.854 501.193 393.569 509.775 394.431C557.948 399.27 596.441 397.185 626.3 388.118C640.859 383.697 652.208 377.753 659.236 370.866L660.042 370.077L659.649 370.945C658.959 372.471 651.778 382.693 648.303 387.097C638.928 398.978 626.194 411.418 618.231 416.476C614.495 418.85 605.626 422.531 599.001 424.457C573.333 431.922 539.171 433.631 500.236 429.398C494.506 428.775 470.166 424.851 465.44 423.789L465.44 423.787ZM506.608 171.186C477.747 164.48 453.419 153.384 441.083 141.299C437.756 138.04 434.191 132.863 433.197 129.846C430.761 122.453 433.142 116.148 440.419 110.722C445.136 107.205 450.713 104.862 460.579 102.254C481.601 96.6954 497.171 94.9409 517.165 95.8759C540.014 96.9445 564.898 103.27 585.002 113.119C593.079 117.076 606.445 125.224 613.173 130.292C618.359 134.199 620.517 136.336 623.177 140.199C628.224 147.529 628.45 154.142 623.868 160.399C621.649 163.429 616.035 167.422 610.668 169.785C588.099 179.725 545.805 180.296 506.608 171.186Z" fill="#F4B274"/>
<path d="M506.603 171.187C477.742 164.48 453.414 153.384 441.078 141.3C437.751 138.04 434.186 132.863 433.192 129.846C430.756 122.453 433.137 116.148 440.415 110.722C445.131 107.205 450.708 104.863 460.574 102.254C481.596 96.6958 497.166 94.9413 517.16 95.8762C540.009 96.9448 564.893 103.27 584.997 113.119C593.074 117.076 606.441 125.225 613.168 130.292C618.354 134.199 620.512 136.336 623.172 140.199C628.219 147.529 628.445 154.142 623.863 160.4C621.644 163.429 616.03 167.422 610.663 169.785C588.094 179.726 545.8 180.296 506.603 171.187Z" fill="#B5BF8B"/>
<path d="M510.677 151.277C497.166 147.898 483.227 142.503 474.208 137.162C470.87 135.185 465.677 131.31 463.329 129.043C460.521 126.333 457.816 122.248 457.028 119.527C456.447 117.519 456.429 116.785 456.9 114.115C457.4 111.278 457.582 110.854 459.119 108.918C462.254 104.971 468.346 101.473 475.652 99.4224C482.608 97.4704 495.161 96.0653 506.184 96.0043C528.06 95.8835 547.682 99.2355 568.75 106.693C578.343 110.088 588.744 115.107 594.145 118.945C600.144 123.209 604.825 128.778 606.094 133.159C606.666 135.134 606.689 135.919 606.252 138.397C605.803 140.947 605.539 141.584 604.145 143.489C597.123 153.079 574.559 158.263 546.63 156.703C535.834 156.1 521.032 153.866 510.677 151.277Z" fill="#8A99A4"/>
<path d="M510.677 151.277C497.166 147.898 483.227 142.503 474.208 137.162C470.87 135.185 465.677 131.31 463.329 129.043C460.521 126.333 457.816 122.248 457.028 119.527C456.446 117.515 456.429 116.79 456.905 114.116C457.52 110.655 458.263 109.418 461.542 106.398C464.758 103.437 471.365 100.371 477.78 98.8627C485.505 97.0468 501.038 95.9473 513.243 96.3527C536.394 97.1216 560.557 102.648 580.961 111.839C584.207 113.302 588.012 115.154 589.415 115.955C597.971 120.842 604.467 127.543 606.094 133.159C606.666 135.134 606.69 135.919 606.253 138.397C605.803 140.947 605.54 141.584 604.145 143.489C597.123 153.079 574.56 158.264 546.631 156.703C535.835 156.1 521.032 153.866 510.677 151.277ZM540.914 131.752C553.752 132.494 563.973 130.891 569.563 127.261C578.335 121.563 573.537 113.1 557.618 106.192C551.603 103.581 545.934 101.967 537.618 100.495C523.385 97.9764 511.717 98.1614 502.36 101.054C493.377 103.831 490.438 109.106 494.682 114.833C498.428 119.887 507.784 124.915 519.784 128.322C523.391 129.347 536.721 131.511 540.915 131.753L540.914 131.752Z" fill="#859E8F"/>
<path d="M538.393 97.9112C524.78 95.5578 510.865 94.7894 496.881 95.6672C442.024 99.1108 391.342 127.481 360.258 172.142C346.915 191.315 337.953 211.579 332.257 235.466C328.291 252.096 326.875 272.339 328.391 290.746C328.92 297.174 331.305 312.77 332.58 318.147C341.128 354.19 361.818 387.853 390.521 412.419C395.264 416.478 404.798 423.567 410.33 427.146C426.958 437.906 447.109 446.504 466.613 451.16C469.915 451.949 473.263 452.632 476.646 453.218C442.126 440.138 413.393 412.903 395.572 376.35C377.658 339.605 371.945 295.856 379.461 252.969C387.018 210.207 407.239 171.122 436.504 142.71C465.559 114.501 501.649 98.642 538.396 97.9114L538.393 97.9112Z" fill="black" fill-opacity="0.31373"/>
<path d="M540.167 91.405C269.26 43.6367 35.1037 87.3694 17.1689 189.082C-0.766402 290.799 204.312 411.977 475.219 459.745C746.127 507.513 980.283 463.78 998.217 362.068C1016.15 260.351 811.075 139.173 540.167 91.405ZM539.388 95.8228C803.794 142.445 1003.96 260.721 986.455 359.994C968.95 459.271 740.416 501.953 475.998 455.329C211.592 408.707 11.426 290.431 28.9307 191.157C46.4357 91.881 274.97 49.1987 539.388 95.8228Z" fill="#6E6252" fill-opacity="0.70196"/>
<path d="M624.342 138.382C640.979 152.502 654.889 169.421 665.285 188.316C773.83 227.611 843.963 283.918 835.248 333.342C823.271 401.267 666.903 430.47 485.993 398.57C305.083 366.671 168.133 285.748 180.11 217.823C188.825 168.396 274.001 139.471 389.451 139.676C405.777 125.495 424.601 114.332 444.921 106.752C254.921 89.1426 103.695 127.076 90.4804 202.019C75.2262 288.53 249.646 391.596 480.052 432.223C710.465 472.851 909.61 435.655 924.865 349.144C938.081 274.191 808.923 186.816 624.331 138.383L624.342 138.382Z" fill="#C6A887"/>
<path d="M401.498 130.092C355.508 128.76 312.544 131.515 275.56 138.424C205.266 151.552 162.308 178.594 156.136 213.6C149.963 248.607 181.082 288.709 242.646 325.089C304.21 361.467 391.174 391.14 484.408 407.58C577.641 424.019 669.513 425.88 739.803 412.751C810.097 399.623 853.054 372.581 859.227 337.574C865.4 302.568 834.281 262.466 772.717 226.086C740.341 206.956 700.939 189.681 657.297 175.208C661.455 181.404 665.218 187.856 668.548 194.536C673.388 204.249 677.321 214.279 680.338 224.515C689.591 228.988 698.332 233.644 706.477 238.457C752.653 265.743 775.994 295.823 771.364 322.081C766.735 348.338 734.513 368.621 681.79 378.469C629.066 388.316 560.156 386.921 490.222 374.589C420.288 362.258 355.056 340.001 308.88 312.715C262.704 285.429 239.363 255.349 243.993 229.091C248.623 202.833 280.845 182.55 333.568 172.703C342.848 170.97 352.63 169.587 362.83 168.548C373.717 153.72 386.806 140.791 401.495 130.092L401.498 130.092Z" fill="#312D24" fill-opacity="0.30196"/>
<path d="M539.112 97.3183C276.907 51.0844 50.2695 93.4113 32.9107 191.858C15.5519 290.305 214.038 407.592 476.25 453.827C738.455 500.061 965.092 457.734 982.45 359.288C999.809 260.841 801.323 143.553 539.112 97.3183ZM538.868 97.9873C558.989 101.523 578.441 108.53 596.463 118.831C602.744 122.421 608.773 126.361 614.533 130.611C812.093 179.783 951.979 272.333 938.027 351.455C922.293 440.69 716.872 479.055 479.215 437.149C241.548 395.242 61.6477 288.932 77.3817 199.7C91.3301 120.594 254.353 81.466 456.767 102.802C469.728 98.9554 483.191 96.5329 496.918 95.6718C511.066 94.7837 525.146 95.5771 538.912 97.996L538.868 97.9873Z" fill="#6E6252" fill-opacity="0.6"/>
</g>
</mask>
<g mask="url(#mask0_414_2565)">
<rect y="-5" width="1233" height="665" fill="#191F41"/>
</g>
<defs>
<clipPath id="clip0_414_2565">
<rect width="1000" height="383.333" fill="white" transform="translate(48.5649) rotate(10)"/>
</clipPath>
</defs>
</svg>
